<?xml version="1.0" encoding="UTF-8"?>
<svg id="_0.Concept_Logo" data-name="0.Concept Logo" xmlns="http://www.w3.org/2000/svg" xmlns:xlink="http://www.w3.org/1999/xlink" viewBox="0 0 512 512">
  <defs>
    <style>
      .cls-1 {
        fill: url(#linear-gradient);
      }
    </style>
    <linearGradient id="linear-gradient" x1="122.14" y1="244.08" x2="389.86" y2="244.08" gradientUnits="userSpaceOnUse">
      <stop offset="0" stop-color="#ff7cb0"/>
      <stop offset="1" stop-color="#325ce8"/>
    </linearGradient>
  </defs>
  <path class="cls-1" d="m278.92,342.24c-6.55-.72-13.63-1.09-20.55-2.32-22.45-3.99-40.63-15.53-55.79-32.25-14.36-15.83-23.38-34.24-25.92-55.45-3.52-29.36,3.87-56.03,22.38-79.08,21.67-26.99,50.24-42.31,84.32-47.62,16.64-2.59,33.18-2.37,49.44,2.2,16.71,4.7,31.32,13.11,42.7,26.41,3.1,3.62,5.81,7.79,7.75,12.13,4.47,9.99-.72,20.97-10.61,23.26-6.32,1.46-11.27-1.22-15.73-5.43-5.91-5.57-11.42-11.72-17.98-16.4-31.03-22.19-77.26-24.11-110.92,3.89-10.44,8.69-18.93,18.86-24.79,30.94-8.65,17.82-11.9,36.71-8.06,56.36,6.5,33.32,25.93,56.24,57.68,67.64,37.27,13.38,79.37.62,103.47-32.24,1.43-1.95,2.94-3.83,4.37-5.77,4.19-5.7,9.9-7.67,16.55-5.91,6.83,1.81,10.76,6.7,12.23,13.58,1.34,6.3-1.05,11.86-3.72,17.23-14.46,29.05-36.41,50.39-66.32,63.14-24.89,10.61-50.9,14.53-77.69,10.17-35.91-5.85-65.69-22.73-88.68-51.21-15.12-18.72-24.43-40.11-28.44-63.68-6.13-36.03-1.12-70.35,17.41-102.23,10.22-17.58,23.87-32.08,40.52-43.72,27.18-18.99,57.28-28.07,90.46-25.86,19.38,1.29,37.97,5.73,54.49,16.66.73.48,1.42,1.02,1.99,1.82-3.69-.87-7.36-1.89-11.08-2.59-26.09-4.93-51.78-3.23-77.05,4.91-24.22,7.8-44.11,22.07-59.82,41.79-14.21,17.84-22.01,38.56-23.39,61.41-2.18,36.02,11.03,66.16,36.98,90.44,21.5,20.12,47.54,29.56,77.22,28.16,2.14-.1,4.29-.23,6.43-.34.17,0,.35-.06.14-.02Z"/>
</svg>