<?xml version="1.0" encoding="UTF-8"?>
<svg id="_0.Concept_Logo" data-name="0.Concept Logo" xmlns="http://www.w3.org/2000/svg" xmlns:xlink="http://www.w3.org/1999/xlink" viewBox="0 0 512 512">
  <defs>
    <style>
      .cls-1 {
        fill: url(#linear-gradient-2);
      }

      .cls-2 {
        fill: url(#linear-gradient);
      }
    </style>
    <linearGradient id="linear-gradient" x1="247.4" y1="413.82" x2="269.02" y2="313.17" gradientUnits="userSpaceOnUse">
      <stop offset=".14" stop-color="#325ce8"/>
      <stop offset=".71" stop-color="#e778b7"/>
    </linearGradient>
    <linearGradient id="linear-gradient-2" x1="153.97" y1="194.48" x2="358.03" y2="194.48" gradientUnits="userSpaceOnUse">
      <stop offset="0" stop-color="#ff7cb0"/>
      <stop offset="1" stop-color="#325ce8"/>
    </linearGradient>
  </defs>
  <g>
    <path class="cls-2" d="m97.33,359.21c2.03-3.56,4.8-6.33,8.32-8.32,3.52-1.99,7.46-2.98,11.83-2.98,5.11,0,9.59,1.31,13.43,3.93,3.84,2.62,6.53,6.25,8.06,10.88h-10.55c-1.05-2.18-2.52-3.82-4.42-4.91-1.9-1.09-4.09-1.64-6.58-1.64-2.66,0-5.03.62-7.11,1.87-2.07,1.24-3.69,3-4.85,5.27-1.16,2.27-1.74,4.94-1.74,7.99s.58,5.67,1.74,7.96c1.16,2.29,2.77,4.06,4.85,5.31,2.07,1.24,4.44,1.87,7.11,1.87,2.49,0,4.68-.56,6.58-1.67,1.9-1.11,3.37-2.76,4.42-4.95h10.55c-1.53,4.67-4.2,8.31-8.03,10.91-3.82,2.6-8.31,3.9-13.46,3.9-4.37,0-8.31-.99-11.83-2.98-3.52-1.99-6.29-4.75-8.32-8.29-2.03-3.54-3.05-7.56-3.05-12.05s1.02-8.53,3.05-12.09Z"/>
    <path class="cls-2" d="m146.66,366.19c1.46-2.84,3.45-5.02,5.96-6.55,2.51-1.53,5.32-2.29,8.42-2.29,2.71,0,5.08.55,7.11,1.64,2.03,1.09,3.66,2.47,4.88,4.13v-5.18h9.24v36.29h-9.24v-5.31c-1.18,1.7-2.81,3.11-4.88,4.23-2.07,1.11-4.47,1.67-7.17,1.67-3.06,0-5.84-.79-8.35-2.36-2.51-1.57-4.5-3.79-5.96-6.65-1.46-2.86-2.19-6.15-2.19-9.86s.73-6.92,2.19-9.76Zm25.06,4.16c-.87-1.59-2.05-2.82-3.54-3.67-1.49-.85-3.08-1.28-4.78-1.28s-3.28.42-4.72,1.24c-1.44.83-2.61,2.04-3.51,3.64-.9,1.59-1.34,3.48-1.34,5.67s.45,4.09,1.34,5.73c.89,1.64,2.07,2.89,3.54,3.77,1.46.87,3.02,1.31,4.68,1.31s3.3-.43,4.78-1.28c1.48-.85,2.66-2.07,3.54-3.67.87-1.59,1.31-3.51,1.31-5.73s-.44-4.14-1.31-5.73Z"/>
    <path class="cls-2" d="m201.92,365.47v17.56c0,1.22.29,2.11.88,2.65.59.55,1.58.82,2.98.82h4.26v7.73h-5.77c-7.73,0-11.6-3.76-11.6-11.27v-17.49h-4.32v-7.53h4.32v-8.98h9.24v8.98h8.12v7.53h-8.12Z"/>
    <path class="cls-2" d="m244.44,359.21c2.14,1.2,3.81,2.97,5.01,5.31,1.2,2.34,1.8,5.14,1.8,8.42v21.29h-9.17v-20.05c0-2.88-.72-5.1-2.16-6.65-1.44-1.55-3.41-2.33-5.9-2.33s-4.53.78-5.99,2.33c-1.46,1.55-2.19,3.77-2.19,6.65v20.05h-9.17v-48.48h9.17v16.71c1.18-1.57,2.75-2.81,4.72-3.7,1.97-.89,4.15-1.34,6.55-1.34,2.75,0,5.2.6,7.34,1.8Z"/>
    <path class="cls-2" d="m259.8,366.19c1.46-2.84,3.45-5.02,5.96-6.55,2.51-1.53,5.32-2.29,8.42-2.29,2.71,0,5.08.55,7.11,1.64,2.03,1.09,3.66,2.47,4.88,4.13v-5.18h9.24v36.29h-9.24v-5.31c-1.18,1.7-2.81,3.11-4.88,4.23-2.07,1.11-4.47,1.67-7.17,1.67-3.06,0-5.84-.79-8.35-2.36-2.51-1.57-4.5-3.79-5.96-6.65-1.46-2.86-2.19-6.15-2.19-9.86s.73-6.92,2.19-9.76Zm25.06,4.16c-.87-1.59-2.05-2.82-3.54-3.67-1.49-.85-3.08-1.28-4.78-1.28s-3.28.42-4.72,1.24c-1.44.83-2.61,2.04-3.51,3.64-.9,1.59-1.34,3.48-1.34,5.67s.45,4.09,1.34,5.73c.89,1.64,2.07,2.89,3.54,3.77,1.46.87,3.02,1.31,4.68,1.31s3.3-.43,4.78-1.28c1.48-.85,2.66-2.07,3.54-3.67.87-1.59,1.31-3.51,1.31-5.73s-.44-4.14-1.31-5.73Z"/>
    <path class="cls-2" d="m313.55,345.75v48.48h-9.17v-48.48h9.17Z"/>
    <path class="cls-2" d="m323.22,352.07c-1.07-1.03-1.61-2.3-1.61-3.83s.53-2.81,1.61-3.83c1.07-1.03,2.41-1.54,4.03-1.54s2.96.51,4.03,1.54c1.07,1.03,1.61,2.3,1.61,3.83s-.54,2.81-1.61,3.83c-1.07,1.03-2.41,1.54-4.03,1.54s-2.96-.51-4.03-1.54Zm8.55,5.86v36.29h-9.17v-36.29h9.17Z"/>
    <path class="cls-2" d="m371.4,361.51c2.66,2.73,4,6.54,4,11.43v21.29h-9.17v-20.05c0-2.88-.72-5.1-2.16-6.65-1.44-1.55-3.41-2.33-5.9-2.33s-4.53.78-5.99,2.33c-1.46,1.55-2.19,3.77-2.19,6.65v20.05h-9.17v-36.29h9.17v4.52c1.22-1.57,2.78-2.81,4.68-3.7,1.9-.89,3.99-1.34,6.26-1.34,4.32,0,7.82,1.37,10.48,4.09Z"/>
    <path class="cls-2" d="m417.59,378.83h-26.53c.22,2.62,1.14,4.67,2.75,6.16,1.62,1.49,3.6,2.23,5.96,2.23,3.41,0,5.83-1.46,7.27-4.39h9.89c-1.05,3.49-3.06,6.37-6.03,8.62-2.97,2.25-6.62,3.37-10.94,3.37-3.49,0-6.63-.77-9.4-2.33-2.77-1.55-4.94-3.74-6.49-6.58-1.55-2.84-2.33-6.11-2.33-9.83s.76-7.05,2.29-9.89c1.53-2.84,3.67-5.02,6.42-6.55,2.75-1.53,5.92-2.29,9.5-2.29s6.54.74,9.27,2.23c2.73,1.49,4.85,3.59,6.35,6.32,1.51,2.73,2.26,5.86,2.26,9.4,0,1.31-.09,2.49-.26,3.54Zm-9.24-6.16c-.04-2.36-.9-4.25-2.56-5.67-1.66-1.42-3.69-2.13-6.09-2.13-2.27,0-4.18.69-5.73,2.06-1.55,1.38-2.5,3.29-2.85,5.73h17.23Z"/>
  </g>
  <path class="cls-1" d="m273.47,269.29c-5-.55-10.39-.83-15.66-1.77-17.11-3.04-30.96-11.84-42.52-24.58-10.94-12.07-17.82-26.1-19.76-42.26-2.69-22.38,2.95-42.7,17.06-60.27,16.51-20.57,38.29-32.25,64.27-36.29,12.68-1.98,25.29-1.81,37.69,1.68,12.73,3.58,23.87,9.99,32.55,20.13,2.36,2.76,4.43,5.94,5.91,9.25,3.41,7.61-.55,15.98-8.09,17.73-4.82,1.11-8.59-.93-11.99-4.14-4.5-4.25-8.71-8.93-13.7-12.5-23.65-16.91-58.89-18.38-84.54,2.96-7.96,6.62-14.42,14.37-18.9,23.58-6.6,13.58-9.07,27.98-6.15,42.96,4.96,25.4,19.77,42.86,43.97,51.55,28.41,10.2,60.49.48,78.86-24.57,1.09-1.48,2.24-2.92,3.33-4.4,3.19-4.35,7.54-5.85,12.61-4.51,5.2,1.38,8.2,5.11,9.32,10.35,1.02,4.8-.8,9.04-2.83,13.13-11.02,22.14-27.75,38.4-50.55,48.12-18.97,8.09-38.79,11.08-59.21,7.75-27.37-4.46-50.07-17.32-67.59-39.03-11.52-14.27-18.62-30.57-21.68-48.54-4.67-27.46-.85-53.62,13.27-77.92,7.79-13.4,18.19-24.45,30.89-33.32,20.71-14.47,43.66-21.4,68.94-19.71,14.77.99,28.94,4.36,41.53,12.7.56.37,1.08.78,1.52,1.39-2.81-.67-5.61-1.44-8.45-1.98-19.89-3.76-39.47-2.46-58.73,3.74-18.46,5.95-33.62,16.82-45.59,31.86-10.83,13.6-16.77,29.39-17.83,46.81-1.66,27.45,8.41,50.42,28.18,68.93,16.39,15.34,36.24,22.53,58.85,21.46,1.63-.08,3.27-.17,4.9-.26.13,0,.26-.05.11-.02Z"/>
</svg>